<?xml version="1.0" encoding="UTF-8" standalone="no"?>
<!DOCTYPE svg PUBLIC "-//W3C//DTD SVG 1.1//EN" "http://www.w3.org/Graphics/SVG/1.1/DTD/svg11.dtd">
<svg width="100%" height="100%" viewBox="0 0 210 164" version="1.1" xmlns="http://www.w3.org/2000/svg" xmlns:xlink="http://www.w3.org/1999/xlink" xml:space="preserve" xmlns:serif="http://www.serif.com/" style="fill-rule:evenodd;clip-rule:evenodd;stroke-linecap:round;stroke-linejoin:round;stroke-miterlimit:1.5;">
    <g id="Artboard1" transform="matrix(0.677035,0,0,0.771658,-224.02,-106.743)">
        <rect x="330.884" y="138.329" width="308.708" height="211.461" style="fill:none;"/>
        <g transform="matrix(1.47703,0,0,1.29591,-211.437,-69.6558)">
            <path d="M469.35,183.067C470.685,189.155 474.489,191.878 480.629,198.205C482.483,205.154 472.798,207.498 471.38,207.932C470.849,210.363 472.332,213.808 475.099,213.106C482.046,213.478 489.953,204.019 487.484,197.224C485.25,191.076 480.738,188.884 476.486,184.331C474.625,181.182 474.867,176.938 480.078,175.528C481.231,171.228 474.562,171.115 472.196,172.689C468.912,174.874 468.757,179.66 469.35,183.067Z" style="stroke:black;stroke-width:1px;"/>
        </g>
        <g transform="matrix(1.47703,0,0,1.29591,-264.373,-69.8771)">
            <path d="M469.35,183.067C470.685,189.155 474.489,191.878 480.629,198.205C482.483,205.154 472.798,207.498 471.38,207.932C470.849,210.363 472.332,213.808 475.099,213.106C482.046,213.478 489.953,204.019 487.484,197.224C485.25,191.076 480.738,188.884 476.486,184.331C474.625,181.182 474.867,176.938 480.078,175.528C481.231,171.228 474.562,171.115 472.196,172.689C468.912,174.874 468.757,179.66 469.35,183.067Z" style="stroke:black;stroke-width:1px;"/>
        </g>
        <g transform="matrix(1.47703,0,0,1.29591,330.884,138.329)">
            <path d="M20.649,64.867L174.629,65.22C176.844,65.344 186.673,64.63 190.444,66.939C199.274,72.345 196.013,86.825 194.603,94.282C191.843,108.874 184.666,133.523 164.306,127.976C161.309,127.16 158.43,125.854 155.75,124.284C136.948,150.74 105.319,156.491 74.923,149.377C64.385,146.911 52.155,142.486 43.664,135.369C23.32,118.317 17.538,90.131 20.649,64.867ZM172.788,77.974C171.833,94.462 168.092,107.349 162.563,114.36C164.057,114.457 165.57,114.413 167.051,114.199C178.106,112.603 181.618,100.347 182.923,90.923C183.729,85.107 182.449,77.085 175.052,77.525C174.284,77.571 173.506,77.696 172.788,77.974Z" style="stroke:black;stroke-width:1px;"/>
        </g>
        <g transform="matrix(1.47703,0,0,1.29591,-215.856,-69.6558)">
            <path d="M435.133,269.024C441.958,276.516 453.565,286.253 464.295,286.857C467.202,287.021 470.046,285.831 472.815,284.931C478.452,283.098 483.603,280.184 488.346,276.668C490.844,274.816 492.657,271.98 495.458,270.63C497.555,269.619 499.385,271.564 499.553,273.243C500.338,281.071 488.151,285.949 484.321,288.91C480.632,291.761 470.464,297.722 465.505,297.712C460.39,297.701 449.569,291.728 445.647,288.851C439.52,284.357 430.286,280.681 429.094,273.176C428.557,269.792 432.913,269.19 435.133,269.024Z" style="fill:rgb(244,126,28);stroke:black;stroke-width:1px;"/>
        </g>
        <g transform="matrix(0.627647,0,0,0.563583,152.934,109.081)">
            <circle cx="465.54" cy="258.428" r="8.834" style="fill:white;"/>
        </g>
        <g transform="matrix(0.627647,0,0,0.563583,206.536,110.185)">
            <circle cx="465.54" cy="258.428" r="8.834" style="fill:white;"/>
        </g>
    </g>
</svg>
